<svg width="16" height="16" viewBox="0 0 16 16" fill="none" xmlns="http://www.w3.org/2000/svg">
<g id="icon=list-music">
<path id="Vector" d="M14 10V4" stroke="#FF0000" stroke-width="2" stroke-linecap="round" stroke-linejoin="round"/>
<path id="Vector_2" d="M12.3333 12C12.7754 12 13.1993 11.8244 13.5118 11.5119C13.8244 11.1993 14 10.7754 14 10.3334C14 9.89133 13.8244 9.4674 13.5118 9.15484C13.1993 8.84228 12.7754 8.66669 12.3333 8.66669C11.8913 8.66669 11.4674 8.84228 11.1548 9.15484C10.8423 9.4674 10.6667 9.89133 10.6667 10.3334C10.6667 10.7754 10.8423 11.1993 11.1548 11.5119C11.4674 11.8244 11.8913 12 12.3333 12Z" stroke="#FF0000" stroke-width="2" stroke-linecap="round" stroke-linejoin="round"/>
<path id="Vector_3" d="M8 8H2" stroke="#FF0000" stroke-width="2" stroke-linecap="round" stroke-linejoin="round"/>
<path id="Vector_4" d="M10.6667 4H2" stroke="#FF0000" stroke-width="2" stroke-linecap="round" stroke-linejoin="round"/>
<path id="Vector_5" d="M8 12H2" stroke="#FF0000" stroke-width="2" stroke-linecap="round" stroke-linejoin="round"/>
</g>
</svg>
