<svg width="32" height="32" viewBox="0 0 32 32" fill="none" xmlns="http://www.w3.org/2000/svg">
<g id="icon=list-music@xl">
<path id="Vector" d="M28 20V8" stroke="black" stroke-width="3" stroke-linecap="round" stroke-linejoin="round"/>
<path id="Vector_2" d="M24.6667 24C25.5507 24 26.3986 23.6488 27.0237 23.0237C27.6488 22.3985 28 21.5507 28 20.6666C28 19.7826 27.6488 18.9347 27.0237 18.3096C26.3986 17.6845 25.5507 17.3333 24.6667 17.3333C23.7826 17.3333 22.9348 17.6845 22.3096 18.3096C21.6845 18.9347 21.3333 19.7826 21.3333 20.6666C21.3333 21.5507 21.6845 22.3985 22.3096 23.0237C22.9348 23.6488 23.7826 24 24.6667 24Z" stroke="black" stroke-width="3" stroke-linecap="round" stroke-linejoin="round"/>
<path id="Vector_3" d="M16 16H4" stroke="black" stroke-width="3" stroke-linecap="round" stroke-linejoin="round"/>
<path id="Vector_4" d="M21.3333 8H4" stroke="black" stroke-width="3" stroke-linecap="round" stroke-linejoin="round"/>
<path id="Vector_5" d="M16 24H4" stroke="black" stroke-width="3" stroke-linecap="round" stroke-linejoin="round"/>
</g>
</svg>
