<svg width="32" height="32" viewBox="0 0 32 32" fill="none" xmlns="http://www.w3.org/2000/svg">
<g id="icon=settings-2@xl">
<path id="Vector" d="M26.6667 9.33334H14.6667" stroke="black" stroke-width="3" stroke-linecap="round" stroke-linejoin="round"/>
<path id="Vector_2" d="M18.6667 22.6667H6.66666" stroke="black" stroke-width="3" stroke-linecap="round" stroke-linejoin="round"/>
<path id="Vector_3" d="M22.6667 26.6667C24.8758 26.6667 26.6667 24.8758 26.6667 22.6667C26.6667 20.4575 24.8758 18.6667 22.6667 18.6667C20.4575 18.6667 18.6667 20.4575 18.6667 22.6667C18.6667 24.8758 20.4575 26.6667 22.6667 26.6667Z" stroke="black" stroke-width="3" stroke-linecap="round" stroke-linejoin="round"/>
<path id="Vector_4" d="M9.33334 13.3333C11.5425 13.3333 13.3333 11.5425 13.3333 9.33334C13.3333 7.1242 11.5425 5.33334 9.33334 5.33334C7.1242 5.33334 5.33334 7.1242 5.33334 9.33334C5.33334 11.5425 7.1242 13.3333 9.33334 13.3333Z" stroke="black" stroke-width="3" stroke-linecap="round" stroke-linejoin="round"/>
</g>
</svg>
