<svg xmlns="http://www.w3.org/2000/svg">
  <defs>
    <symbol id="arrow-left" viewBox="0 0 24 24">
      <path d="M25.3333 16H6.66666"/>
      <path d="M16 25.3333L6.66666 16L16 6.66666"/>
    </symbol>
    <symbol id="menu" viewBox="0 0 24 24">
      <line x1="4" x2="20" y1="12" y2="12" />
      <line x1="4" x2="20" y1="6" y2="6"/>
      <line x1="4" x2="20" y1="18" y2="18"/>
    </symbol>
    <symbol id="search" viewBox="0 0 24 24">
      <circle cx="11" cy="11" r="8"/>
      <path d="m21 21-4.3-4.3"/>
    </symbol>
    <symbol id="exit" viewBox="0 0 24 24">
        <path d="M18 6L6 18"/>
        <path d="M6 6L18 18"/>
    </symbol>
    <symbol id="moon" viewBox="0 0 24 24">
      <path d="M12 3a6 6 0 0 0 9 9 9 9 0 1 1-9-9Z"/>
    </symbol>
    <symbol id="chevron-down" viewBox="0 0 24 24">
      <path d="m6 9 6 6 6-6"/>
    </symbol>
    <symbol id="home" viewBox="0 0 24 24">
      <path d="m3 9 9-7 9 7v11a2 2 0 0 1-2 2H5a2 2 0 0 1-2-2z"/>
      <polyline points="9 22 9 12 15 12 15 22"/>
    </symbol>
    <symbol id="settings" viewBox="0 0 24 24">
      <path d="M12.22 2h-.44a2 2 0 0 0-2 2v.18a2 2 0 0 1-1 1.73l-.43.25a2 2 0 0 1-2 0l-.15-.08a2 2 0 0 0-2.73.73l-.22.38a2 2 0 0 0 .73 2.73l.15.1a2 2 0 0 1 1 1.72v.51a2 2 0 0 1-1 1.74l-.15.09a2 2 0 0 0-.73 2.73l.22.38a2 2 0 0 0 2.73.73l.15-.08a2 2 0 0 1 2 0l.43.25a2 2 0 0 1 1 1.73V20a2 2 0 0 0 2 2h.44a2 2 0 0 0 2-2v-.18a2 2 0 0 1 1-1.73l.43-.25a2 2 0 0 1 2 0l.15.08a2 2 0 0 0 2.73-.73l.22-.39a2 2 0 0 0-.73-2.73l-.15-.08a2 2 0 0 1-1-1.74v-.5a2 2 0 0 1 1-1.74l.15-.09a2 2 0 0 0 .73-2.73l-.22-.38a2 2 0 0 0-2.73-.73l-.15.08a2 2 0 0 1-2 0l-.43-.25a2 2 0 0 1-1-1.73V4a2 2 0 0 0-2-2z"/>
      <circle cx="12" cy="12" r="3"/>
    </symbol>
    <symbol id="list-music" viewBox="0 0 24 24">
     <path d="M21 15V6"/>
     <path d="M18.5 18a2.5 2.5 0 1 0 0-5 2.5 2.5 0 0 0 0 5Z"/>
     <path d="M12 12H3"/>
     <path d="M16 6H3"/>
     <path d="M12 18H3"/>
    </symbol>
    <symbol id="arrow" viewBox="0 0 24 24">
      <path d="M5 12h14"/>
      <path d="m12 5 7 7-7 7"/>
    </symbol>
  </defs>
</svg>

