<svg xmlns="http://www.w3.org/2000/svg">
  <defs>
    <symbol id="arrow-left" viewBox="0 0 24 24">
      <path d="M25.3333 16H6.66666"/>
      <path d="M16 25.3333L6.66666 16L16 6.66666"/>
    </symbol>
    <symbol id="menu" viewBox="0 0 24 24">
      <line x1="4" x2="20" y1="12" y2="12" />
      <line x1="4" x2="20" y1="6" y2="6"/>
      <line x1="4" x2="20" y1="18" y2="18"/>
    </symbol>
    <symbol id="search" viewBox="0 0 24 24">
      <circle cx="11" cy="11" r="8"/>
      <path d="m21 21-4.3-4.3"/>
    </symbol>
    <symbol id="exit" viewBox="0 0 24 24">
        <path d="M18 6L6 18"/>
        <path d="M6 6L18 18"/>
    </symbol>
    <symbol id="moon" viewBox="0 0 24 24">
      <path d="M12 3a6 6 0 0 0 9 9 9 9 0 1 1-9-9Z"/>
    </symbol>
    <symbol id="chevron-down" viewBox="0 0 24 24">
      <path d="m6 9 6 6 6-6"/>
    </symbol>
    <symbol id="chevron-up" viewBox="0 0 24 24">
      <path d="m18 15-6-6-6 6"/>
    </symbol>
  </defs>
</svg>
